<?xml version="1.0" standalone="no"?>
<!DOCTYPE svg PUBLIC "-//W3C//DTD SVG 20010904//EN"
 "http://www.w3.org/TR/2001/REC-SVG-20010904/DTD/svg10.dtd">
<svg version="1.0" xmlns="http://www.w3.org/2000/svg"
 width="331.000000pt" height="331.000000pt" viewBox="0 0 331.000000 331.000000"
 preserveAspectRatio="xMidYMid meet">
<metadata>
Created by potrace 1.11, written by Peter Selinger 2001-2013
</metadata>
<g transform="translate(0.000000,331.000000) scale(0.100000,-0.100000)"
fill="#000000" stroke="none">
<path d="M1708 3186 c-1 -2 -55 -6 -118 -9 -63 -3 -131 -9 -150 -12 -95 -17
-234 -60 -316 -99 -339 -162 -517 -394 -569 -741 -4 -22 -8 -51 -11 -65 -14
-80 -17 -310 -18 -1150 l-1 -935 210 0 210 0 0 403 0 402 298 0 297 0 0 -403
0 -402 208 0 207 0 2 360 c1 198 2 379 2 403 l1 42 200 0 200 0 1 -32 c0 -18
1 -199 2 -403 l2 -370 210 0 210 0 0 1000 c0 888 -4 1104 -21 1203 -43 240
-130 395 -310 552 -88 76 -293 181 -400 205 -10 2 -50 11 -89 19 -38 9 -106
18 -150 22 -44 3 -85 7 -92 9 -6 2 -13 2 -15 1z m162 -451 c61 -12 153 -45
215 -80 130 -72 210 -169 244 -297 29 -106 32 -143 36 -350 l4 -188 -37 0
c-128 -1 -1351 -1 -1370 -1 l-23 1 2 137 c4 220 29 346 95 474 84 161 273 282
479 306 28 3 52 7 54 9 6 5 261 -4 301 -11z"/>
</g>
</svg>
